<?xml version="1.0" standalone="no"?>
<!DOCTYPE svg PUBLIC "-//W3C//DTD SVG 20010904//EN"
 "http://www.w3.org/TR/2001/REC-SVG-20010904/DTD/svg10.dtd">
<svg version="1.0" xmlns="http://www.w3.org/2000/svg"
 width="356.000000pt" height="356.000000pt" viewBox="0 0 356.000000 356.000000"
 preserveAspectRatio="xMidYMid meet">
<metadata>
Created by potrace 1.11, written by Peter Selinger 2001-2013
</metadata>
<g transform="translate(0.000000,356.000000) scale(0.100000,-0.100000)"
fill="#000000" stroke="none">
<path d="M2854 3465 c19 -40 14 -111 -12 -160 -41 -80 -112 -138 -287 -235
-387 -215 -507 -379 -580 -795 -3 -16 -8 -59 -11 -95 -4 -36 -8 -72 -9 -80 -2
-8 -4 -17 -4 -19 -1 -3 -14 15 -30 40 -102 157 -273 296 -430 349 -130 44
-238 45 -430 4 -103 -22 -270 -22 -341 -1 -71 21 -146 69 -168 107 -26 45 -35
36 -27 -27 43 -366 237 -722 498 -917 230 -171 471 -242 852 -250 l70 -1 -1
-105 c-2 -242 -39 -483 -110 -710 l-36 -117 -177 1 c-266 2 -380 -13 -561 -70
-138 -43 -296 -132 -367 -206 l-33 -34 44 -43 43 -42 44 38 c130 112 293 180
524 219 75 12 477 13 545 1 14 -3 48 -8 75 -11 44 -6 83 -12 190 -32 151 -27
468 -116 663 -186 62 -22 114 -39 116 -37 6 9 46 112 44 114 -2 1 -69 25 -151
53 -251 88 -514 158 -719 193 -38 6 -68 14 -68 18 0 3 5 22 10 41 6 19 13 49
16 65 2 17 11 62 19 100 7 39 17 94 20 124 4 30 8 61 10 70 15 88 33 331 35
483 l2 107 71 21 c87 27 184 74 269 131 84 56 231 206 293 299 141 212 235
487 264 770 9 94 7 304 -4 390 -20 157 -96 374 -154 440 l-22 25 15 -30z m33
-449 c9 -83 9 -295 0 -383 -60 -560 -364 -977 -792 -1087 -242 -62 -570 -28
-813 84 -161 75 -320 212 -421 364 -53 78 -129 237 -149 310 l-11 38 52 -8
c99 -14 242 -6 372 23 274 59 496 -38 680 -297 30 -41 63 -81 74 -87 37 -23
93 -25 131 -6 45 24 67 64 75 138 4 33 8 78 11 100 10 91 37 212 65 291 72
197 193 319 454 460 94 50 183 107 225 143 l24 22 8 -22 c5 -12 11 -49 15 -83z
m-851 -1794 c-4 -87 -8 -170 -11 -183 -2 -13 -6 -55 -10 -93 -4 -38 -8 -79
-10 -90 -2 -12 -11 -66 -19 -121 -15 -96 -18 -112 -32 -180 -7 -37 -26 -98
-34 -107 -3 -4 -11 -4 -18 1 -11 7 -9 25 12 92 54 177 91 370 102 521 4 51 8
107 9 123 2 17 4 67 4 113 1 45 4 82 7 82 4 0 4 -71 0 -158z"/>
</g>
</svg>
